<svg width="0" height="0" class="hidden">
  <symbol fill="currentColor" xmlns="http://www.w3.org/2000/svg" viewBox="0 0 46 8" id="logo">
    <g>
      <path d="M.37,2h3v.2H2.5V9.8h.86V10h-3V9.8h.76V2.2H.37Z" transform="translate(-0.37 -1.88)"/>
      <path d="M4.91,9.8l.56,0a.42.42,0,0,0,.3-.12.52.52,0,0,0,.1-.31,5.08,5.08,0,0,0,0-.61V2.36L5.74,2.2H4.91V2H7.32L10.8,7.71V3.2c0-.26,0-.46,0-.59a.53.53,0,0,0-.09-.3.3.3,0,0,0-.21-.1H9.84V2H12v.2h-.66a.28.28,0,0,0-.21.1.53.53,0,0,0-.09.3,4.64,4.64,0,0,0,0,.59v6.86h-.6L6.12,2.93V8.54c0,.32,0,.56,0,.73a.69.69,0,0,0,.1.38.42.42,0,0,0,.3.13l.59,0V10H4.91Z" transform="translate(-0.37 -1.88)"/>
      <path d="M15.61,2.2h-.17a4,4,0,0,0-.94.09,1.12,1.12,0,0,0-.6.34,1.35,1.35,0,0,0-.31.67,5.5,5.5,0,0,0-.09,1.11h-.22c0-.42,0-.82,0-1.21l0-1.2h5.94c0,.4,0,.8,0,1.2s0,.79,0,1.21h-.19A5.23,5.23,0,0,0,19,3.24a1.25,1.25,0,0,0-.33-.67,1.07,1.07,0,0,0-.63-.3,6,6,0,0,0-1-.07V9.8h.81V10H14.76V9.8h.85Z" transform="translate(-0.37 -1.88)"/>
      <path d="M20.77,2h3v.2H22.9V9.8h.86V10h-3V9.8h.76V2.2h-.76Z" transform="translate(-0.37 -1.88)"/>
      <path d="M25.44,10l3.85-7.76h-.51a12.32,12.32,0,0,0-1.35.06,2.43,2.43,0,0,0-.81.22h0A1.24,1.24,0,0,0,26,3.75v.47h-.19V2H31l-4,7.8h.88a8.2,8.2,0,0,0,1.32-.09,2.82,2.82,0,0,0,.9-.27,1.29,1.29,0,0,0,.51-.5,1.59,1.59,0,0,0,.16-.72V7.68H31V10Z" transform="translate(-0.37 -1.88)"/>
      <path d="M32.18,9.8a2.55,2.55,0,0,0,.44,0,.57.57,0,0,0,.27-.13.85.85,0,0,0,.18-.28c0-.13.11-.29.17-.48.34-1.17.69-2.33,1-3.5S35,3,35.34,1.88h.41L38.3,9.8h.53V10H36V9.8h.81L36,7.38H33.91l-.08.24-.15.46-.16.55c-.05.19-.1.35-.14.51a1.43,1.43,0,0,0-.06.31.22.22,0,0,0,.12.21.67.67,0,0,0,.27.11,1.66,1.66,0,0,0,.32,0h.28V10H32.18ZM34,7.18h2L34.93,4Z" transform="translate(-0.37 -1.88)"/>
      <path d="M41.94,9.8h.73V10H40V9.8h.66V2.2H40V2h3.47a3.46,3.46,0,0,1,.78.09,2,2,0,0,1,.68.32,1.78,1.78,0,0,1,.48.59,2.07,2.07,0,0,1,.18.92,2,2,0,0,1-.12.73,1.63,1.63,0,0,1-.35.53,1.86,1.86,0,0,1-.5.37,2.59,2.59,0,0,1-.61.21V5.9a1.58,1.58,0,0,1,.78.42,2.08,2.08,0,0,1,.43.67,2.61,2.61,0,0,1,.18.78c0,.28,0,.54,0,.79s0,.34,0,.5a2.37,2.37,0,0,0,.06.41.7.7,0,0,0,.15.27.33.33,0,0,0,.26.1l.21,0,.19-.06h0l.07.18a2.07,2.07,0,0,1-.4.13,2.6,2.6,0,0,1-.4,0,1.89,1.89,0,0,1-.83-.15,1.19,1.19,0,0,1-.46-.43,1.9,1.9,0,0,1-.22-.66c0-.26-.06-.54-.09-.86,0-.09,0-.19,0-.3s0-.21,0-.32a1.94,1.94,0,0,0-.24-.8,1.17,1.17,0,0,0-.46-.43,1.67,1.67,0,0,0-.6-.17c-.23,0-.46,0-.7,0Zm0-7.6V5.74h.38a2.18,2.18,0,0,0,.67-.1,1.53,1.53,0,0,0,.58-.3A1.49,1.49,0,0,0,44,4.8,2,2,0,0,0,44.14,4,2.26,2.26,0,0,0,44,3.1a1.41,1.41,0,0,0-.39-.55A1.52,1.52,0,0,0,43,2.28a3.38,3.38,0,0,0-.72-.08Z" transform="translate(-0.37 -1.88)"/>
    </g>
  </symbol>
  <symbol fill="none" xmlns="http://www.w3.org/2000/svg" viewBox="0 0 20 20" id="reddit" transform="translate(-56,-56)">
    <g id="Artwork" transform="translate(-56,-56)">
      <circle fill-rule="evenodd"  cx="66" cy="66" r="10" fill="currentColor"/>
      <path fill-rule="evenodd" clip-rule="evenodd" d="M72.7,66c0-0.8-0.7-1.5-1.5-1.5c-0.4,0-0.8,0.2-1,0.4c-1-0.7-2.4-1.2-3.9-1.2l0.7-3.1l2.2,0.5 c0,0.5,0.5,1,1,1c0.6,0,1-0.5,1-1s-0.5-1-1-1c-0.4,0-0.8,0.2-0.9,0.6L66.8,60c-0.1,0-0.1,0-0.2,0c-0.1,0-0.1,0.1-0.1,0.2 l-0.7,3.5c-1.6,0-2.9,0.5-4,1.2c-0.3-0.3-0.6-0.4-1-0.4c-0.8,0-1.5,0.7-1.5,1.5c0,0.6,0.4,1.1,0.9,1.3c0,0.1,0,0.3,0,0.4 c0,2.2,2.6,4.1,5.8,4.1c3.2,0,5.8-1.8,5.8-4.1c0-0.1,0-0.3,0-0.4C72.3,67.1,72.7,66.6,72.7,66L72.7,66z M62.7,67c0-0.6,0.5-1,1-1 c0.6,0,1,0.5,1,1s-0.5,1-1,1C63.1,68.1,62.7,67.6,62.7,67z M68.5,69.8c-0.7,0.7-2.1,0.8-2.5,0.8c-0.4,0-1.8-0.1-2.5-0.8 c-0.1-0.1-0.1-0.3,0-0.4s0.3-0.1,0.4,0c0.5,0.5,1.4,0.6,2.1,0.6s1.6-0.2,2.1-0.6c0.1-0.1,0.3-0.1,0.4,0 C68.6,69.5,68.6,69.7,68.5,69.8z M68.3,68.1c-0.6,0-1-0.5-1-1s0.5-1,1-1s1,0.5,1,1C69.3,67.6,68.9,68.1,68.3,68.1z" fill="white"/>
    </g>
  </symbol>
</svg>